<svg width="139" height="32" viewBox="0 0 139 32" fill="none" xmlns="http://www.w3.org/2000/svg">
<g clip-path="url(#clip0_613_3205)">
<path d="M12.986 29.737C12.986 29.737 15.5971 34.3375 19.203 30.4208C19.4019 30.2045 19.6133 29.9732 19.8346 29.7345C18.2928 28.9387 13.3715 26.3873 8.91514 24.0024C11.1458 27.1607 12.986 29.737 12.986 29.737Z" fill="#3D4350"/>
<path d="M6.9456 5.43604L3.5387 7.29367C3.5387 7.29367 -0.397887 9.61135 1.6189 13.349C1.72832 13.2147 1.79795 13.1376 1.79795 13.1376L6.9456 5.43604Z" fill="#3D4350"/>
<path d="M20.0112 1.44977C20.0112 1.44977 18.8499 -1.05194 15.9702 0.517222L13.8564 1.66861C15.2017 2.23808 19.9341 4.23746 23.6792 5.80911C21.65 3.40936 20.0112 1.44977 20.0112 1.44977Z" fill="#3D4350"/>
<path d="M30.3314 13.5107C30.0777 13.2322 29.7793 12.9014 29.451 12.5309C28.9686 14.3089 27.8893 18.2928 26.9095 21.9359C28.7 19.9515 30.0205 18.4843 30.0205 18.4843C30.0205 18.4843 33.0668 16.4948 30.3314 13.5107Z" fill="#3D4350"/>
<path d="M1.61641 13.349C0.880321 14.2542 -1.72086 17.875 1.79546 20.0385C3.22785 20.9188 5.96829 22.4258 8.91514 23.9999C6.33136 20.3394 3.22536 15.8955 1.85763 13.7593C1.77059 13.6201 1.69101 13.4833 1.61641 13.349Z" fill="#667085"/>
<path d="M13.4834 1.5119C13.4834 1.5119 10.8424 -0.395463 9.318 1.88492L6.94312 5.43606L13.8564 1.66857C13.6177 1.5691 13.4834 1.5119 13.4834 1.5119Z" fill="#667085"/>
<path d="M29.7097 11.5834C29.7097 11.5834 30.8909 8.78577 27.8446 7.54237C26.9767 7.18676 25.4349 6.54517 23.6767 5.80908C25.6065 8.09195 27.8893 10.7702 29.451 12.5334C29.6152 11.934 29.7097 11.5834 29.7097 11.5834Z" fill="#667085"/>
<path d="M20.322 29.9857C20.322 29.9857 24.2387 32.0994 25.2335 28.2449C25.5766 26.912 26.2182 24.5097 26.9095 21.9359C24.7436 24.3357 21.8862 27.4914 19.8321 29.7345C20.1505 29.8961 20.322 29.9857 20.322 29.9857Z" fill="#667085"/>
<path d="M23.6792 5.80908C19.9341 4.23743 15.2017 2.23805 13.8564 1.66858L6.94312 5.43606L1.79547 13.1377C1.79547 13.1377 1.72584 13.2123 1.61642 13.349C1.68853 13.4833 1.76811 13.6201 1.85764 13.7593C3.22537 15.8955 6.33137 20.3394 8.91514 23.9999C13.374 26.3873 18.2953 28.9362 19.8346 29.732C21.8887 27.4914 24.7436 24.3357 26.912 21.9334C27.8918 18.2903 28.9711 14.3064 29.4535 12.5284C27.8918 10.7677 25.609 8.08947 23.6792 5.80908Z" fill="#667085"/>
<path d="M55.6767 20.317L42.738 5.83399C42.6385 5.72457 42.4992 5.65991 42.35 5.65991H42.1088C41.8203 5.65991 41.5891 5.89367 41.5891 6.17965V25.8178C41.5891 26.1063 41.8228 26.3376 42.1088 26.3376H43.9416C44.23 26.3376 44.4613 26.1038 44.4613 25.8178V11.862L57.2882 26.1635C57.3876 26.2729 57.5269 26.3376 57.6761 26.3376H57.9298C58.2182 26.3376 58.4495 26.1038 58.4495 25.8178V6.17965C58.4495 5.89118 58.2157 5.65991 57.9298 5.65991H56.194C55.9055 5.65991 55.6742 5.89367 55.6742 6.17965V20.317H55.6767Z" fill="#667085"/>
<path d="M67.949 26.3376H77.7644C78.0877 26.3376 78.3488 26.0765 78.3488 25.7532V24.2163C78.3488 23.893 78.0877 23.6319 77.7644 23.6319H70.2294V16.5595H77.7644C78.0877 16.5595 78.3488 16.2984 78.3488 15.9751V14.4383C78.3488 14.115 78.0877 13.8539 77.7644 13.8539H70.2294V8.36554H77.8489C78.1722 8.36554 78.4333 8.10443 78.4333 7.78114V6.24431C78.4333 5.92103 78.1722 5.65991 77.8489 5.65991H67.949C67.6581 5.65991 67.4243 5.89367 67.4243 6.18462V25.8129C67.4218 26.1013 67.6581 26.3376 67.949 26.3376Z" fill="#667085"/>
<path d="M106.656 16.005C106.656 12.9686 105.567 10.3749 103.416 8.29095C101.27 6.21199 98.5962 5.15759 95.4728 5.15759C93.4486 5.15759 91.5611 5.63754 89.8651 6.5875C88.1666 7.53745 86.8039 8.87534 85.8166 10.5664C84.8318 12.2549 84.332 14.1125 84.332 16.087C84.332 19.0513 85.4237 21.6127 87.5797 23.6991C89.7308 25.783 92.4041 26.8399 95.5275 26.8399C97.5667 26.8399 99.4368 26.3699 101.093 25.4448L102.195 26.8051C102.287 26.917 102.426 26.9817 102.573 26.9767L105.236 26.8697C105.529 26.8573 105.676 26.5092 105.48 26.2903L103.266 23.8309C104.378 22.7566 105.219 21.5953 105.768 20.3743C106.357 19.0563 106.656 17.5866 106.656 16.005ZM103.781 15.9876C103.781 18.2058 103.018 20.1181 101.513 21.6748L99.0662 18.6211C98.9767 18.5116 98.8424 18.4495 98.7007 18.4545L96.2711 18.5514C95.9005 18.5664 95.7091 19.0015 95.9503 19.2826L99.3149 23.2515C98.1337 23.8433 96.8306 24.1442 95.4355 24.1442C93.17 24.1442 91.2105 23.3559 89.609 21.8042C88.0124 20.2549 87.2018 18.3276 87.2018 16.0771C87.2018 14.5527 87.5698 13.1501 88.2935 11.9092C89.0171 10.6683 90.0392 9.67111 91.3298 8.94497C92.623 8.21634 94.018 7.8483 95.4778 7.8483C96.9276 7.8483 98.3301 8.21883 99.6407 8.95243C100.949 9.68355 101.978 10.6708 102.697 11.8868C103.418 13.1029 103.781 14.4831 103.781 15.9876Z" fill="#667085"/>
<path d="M124.255 18.064C124.255 19.9689 124.148 20.7547 124.061 21.078C123.882 21.7271 123.596 22.2841 123.215 22.7367C122.837 23.1868 122.357 23.5449 121.788 23.801C120.555 24.3556 119.157 24.3034 117.824 23.6866C117.118 23.3609 116.593 22.9555 116.26 22.4855C115.927 22.0105 115.708 21.4038 115.613 20.6727C115.578 20.4439 115.534 19.8073 115.534 18.064V6.22441C115.534 5.91356 115.28 5.65991 114.969 5.65991H113.293C112.982 5.65991 112.729 5.91356 112.729 6.22441V18.064C112.729 20.1455 112.858 21.558 113.122 22.3761C113.547 23.719 114.395 24.8132 115.646 25.6263C116.882 26.4296 118.381 26.8399 120.102 26.8399C121.703 26.8399 123.089 26.4047 124.225 25.5443C125.357 24.6888 126.122 23.6618 126.503 22.4955C126.871 21.3665 127.058 19.8744 127.058 18.064V6.22441C127.058 5.91356 126.804 5.65991 126.493 5.65991H124.817C124.506 5.65991 124.252 5.91356 124.252 6.22441V18.064H124.255Z" fill="#667085"/>
<path d="M135.247 6.20203V25.7855C135.247 26.0914 135.495 26.3376 135.799 26.3376H137.497C137.803 26.3376 138.049 26.0889 138.049 25.7855V6.20203C138.049 5.90362 137.805 5.65991 137.507 5.65991H135.786C135.49 5.65991 135.247 5.90113 135.247 6.20203Z" fill="#667085"/>
</g>
<defs>
<clipPath id="clip0_613_3205">
<rect width="138.052" height="32" fill="white"/>
</clipPath>
</defs>
</svg>
