<svg width="154" height="32" viewBox="0 0 154 32" fill="none" xmlns="http://www.w3.org/2000/svg">
<g clip-path="url(#clip0_613_3126)">
<path d="M31.5163 19.8727C29.3813 28.4426 20.6963 33.6626 12.1263 31.5226C3.55625 29.3876 -1.65874 20.7026 0.47626 12.1326C2.61126 3.55765 11.2913 -1.65735 19.8613 0.477646C28.4363 2.61765 33.6563 11.2977 31.5163 19.8727Z" fill="#667085"/>
<path d="M23.0513 13.7226C23.3713 11.5926 21.7513 10.4476 19.5313 9.68764L20.2513 6.80263L18.4963 6.36264L17.7963 9.17264C17.3363 9.05764 16.8613 8.94764 16.3913 8.84264L17.0963 6.01764L15.3413 5.57764L14.6213 8.46263C14.2413 8.37763 13.8663 8.28763 13.5013 8.19763V8.18764L11.0813 7.58264L10.6163 9.45764C10.6163 9.45764 11.9213 9.75763 11.8913 9.77263C12.6013 9.95263 12.7313 10.4226 12.7113 10.7926L11.8913 14.0776C11.9413 14.0926 12.0063 14.1076 12.0763 14.1376C12.0163 14.1226 11.9563 14.1076 11.8913 14.0926L10.7413 18.6976C10.6563 18.9126 10.4313 19.2376 9.93626 19.1126C9.95126 19.1376 8.66125 18.7926 8.66125 18.7926L7.79126 20.8026L10.0763 21.3726C10.5013 21.4776 10.9163 21.5926 11.3263 21.6976L10.6013 24.6126L12.3563 25.0526L13.0763 22.1676C13.5563 22.2976 14.0213 22.4176 14.4763 22.5326L13.7613 25.4026L15.5163 25.8426L16.2413 22.9326C19.2363 23.4976 21.4863 23.2726 22.4313 20.5626C23.1963 18.3826 22.3913 17.1226 20.8163 16.3026C21.9563 16.0326 22.8213 15.2776 23.0513 13.7226ZM19.0413 19.3426C18.5013 21.5226 14.8263 20.3426 13.6363 20.0476L14.6013 16.1826C15.7913 16.4826 19.6063 17.0726 19.0413 19.3426ZM19.5863 13.6876C19.0913 15.6726 16.0363 14.6626 15.0463 14.4176L15.9213 10.9126C16.9063 11.1576 20.1013 11.6226 19.5863 13.6876Z" fill="#F0F1F3"/>
<path d="M46.8863 9.68268C48.1863 9.68268 49.3063 9.91268 50.2463 10.3727C51.1913 10.8327 51.9763 11.4527 52.6013 12.2377C53.2213 13.0227 53.6813 13.9427 53.9763 14.9927C54.2713 16.0477 54.4213 17.1827 54.4213 18.3927C54.4213 20.2577 54.0813 22.0177 53.3913 23.6777C52.7013 25.3377 51.7663 26.7827 50.5763 28.0127C49.3863 29.2427 47.9813 30.2077 46.3663 30.9227C44.7513 31.6377 42.9913 31.9977 41.1063 31.9977C40.8613 31.9977 40.4313 31.9927 39.8263 31.9777C39.2213 31.9677 38.5263 31.9027 37.7413 31.7977C36.9563 31.6877 36.1263 31.5277 35.2513 31.3077C34.3763 31.0927 33.5413 30.7977 32.7613 30.4177L39.7663 0.977676L46.0413 0.00268555L43.5313 10.4477C44.0663 10.2077 44.6113 10.0177 45.1513 9.88268C45.6863 9.75268 46.2663 9.68268 46.8863 9.68268ZM41.6263 27.0177C42.5713 27.0177 43.4613 26.7877 44.2963 26.3277C45.1363 25.8727 45.8613 25.2527 46.4663 24.4827C47.0713 23.7127 47.5513 22.8427 47.9013 21.8677C48.2513 20.8977 48.4263 19.8827 48.4263 18.8277C48.4263 17.5327 48.2113 16.5227 47.7763 15.7927C47.3463 15.0677 46.5463 14.6977 45.3863 14.6977C45.0063 14.6977 44.5163 14.7677 43.9113 14.8977C43.3013 15.0327 42.7563 15.3227 42.2663 15.7527L39.5963 26.8477C39.7563 26.8777 39.9013 26.9027 40.0213 26.9277C40.1413 26.9577 40.2713 26.9727 40.4013 26.9877C40.5413 27.0027 40.6963 27.0127 40.8913 27.0127C41.0863 27.0177 41.3263 27.0177 41.6263 27.0177Z" fill="#667085"/>
<path d="M60.9263 31.4327H54.9313L59.9913 10.1327H66.0263L60.9263 31.4327ZM63.8463 7.5377C63.0113 7.5377 62.2513 7.2877 61.5763 6.7877C60.8963 6.2927 60.5613 5.52771 60.5613 4.49771C60.5613 3.93271 60.6763 3.40271 60.9063 2.89771C61.1363 2.39771 61.4413 1.96771 61.8213 1.60271C62.2013 1.23771 62.6363 0.947712 63.1363 0.732712C63.6363 0.517712 64.1713 0.407715 64.7363 0.407715C65.5713 0.407715 66.3263 0.657715 67.0013 1.15771C67.6763 1.65771 68.0113 2.42271 68.0113 3.44771C68.0113 4.01771 67.8963 4.54771 67.6663 5.04771C67.4363 5.54771 67.1363 5.97771 66.7563 6.34271C66.3813 6.70771 65.9363 6.99771 65.4413 7.21271C64.9413 7.43271 64.4113 7.5377 63.8463 7.5377Z" fill="#667085"/>
<path d="M71.2813 4.82767L77.5613 3.85767L76.0213 10.1377H82.7463L81.5313 15.0777H74.8463L73.0663 22.5277C72.9013 23.1477 72.8113 23.7277 72.7813 24.2677C72.7513 24.8077 72.8213 25.2727 72.9813 25.6677C73.1413 26.0627 73.4313 26.3627 73.8513 26.5777C74.2713 26.7977 74.8663 26.9027 75.6513 26.9027C76.2963 26.9027 76.9263 26.8427 77.5363 26.7177C78.1413 26.5977 78.7563 26.4327 79.3763 26.2127L79.8213 30.8327C79.0113 31.1277 78.1363 31.3827 77.1913 31.6027C76.2463 31.8227 75.1263 31.9227 73.8313 31.9227C71.9713 31.9227 70.5263 31.6477 69.4963 31.0977C68.4713 30.5427 67.7413 29.7877 67.3063 28.8277C66.8763 27.8727 66.6863 26.7727 66.7413 25.5277C66.7963 24.2827 66.9863 22.9777 67.3063 21.5977L71.2813 4.82767Z" fill="#667085"/>
<path d="M82.4763 22.9276C82.4763 21.0926 82.7713 19.3626 83.3663 17.7426C83.9563 16.1226 84.8113 14.7026 85.9213 13.4876C87.0263 12.2776 88.3713 11.3176 89.9513 10.6126C91.5263 9.91263 93.2913 9.55762 95.2313 9.55762C96.4463 9.55762 97.5363 9.67262 98.4913 9.90262C99.4513 10.1326 100.321 10.4376 101.106 10.8126L99.0413 15.5126C98.5013 15.2926 97.9413 15.1026 97.3613 14.9276C96.7813 14.7476 96.0713 14.6626 95.2363 14.6626C93.2363 14.6626 91.6563 15.3526 90.4763 16.7276C89.3013 18.1026 88.7113 19.9576 88.7113 22.2776C88.7113 23.6526 89.0063 24.7676 89.6063 25.6176C90.2013 26.4676 91.2963 26.8926 92.8863 26.8926C93.6713 26.8926 94.4263 26.8126 95.1563 26.6526C95.8863 26.4926 96.5313 26.2876 97.1013 26.0476L97.5513 30.8676C96.7913 31.1626 95.9563 31.4276 95.0413 31.6576C94.1213 31.8826 93.0263 31.9976 91.7613 31.9976C90.0863 31.9976 88.6713 31.7526 87.5113 31.2676C86.3513 30.7776 85.3913 30.1276 84.6363 29.3026C83.8763 28.4776 83.3313 27.5126 82.9963 26.4076C82.6513 25.3026 82.4763 24.1376 82.4763 22.9276Z" fill="#667085"/>
<path d="M109.101 31.9976C107.671 31.9976 106.426 31.7776 105.371 31.3476C104.321 30.9176 103.451 30.3126 102.761 29.5276C102.071 28.7476 101.556 27.8226 101.201 26.7576C100.846 25.6926 100.676 24.5126 100.676 23.2176C100.676 21.5976 100.936 19.9726 101.461 18.3526C101.986 16.7326 102.761 15.2776 103.791 13.9826C104.811 12.6876 106.071 11.6276 107.556 10.7976C109.036 9.97762 110.741 9.56262 112.656 9.56262C114.061 9.56262 115.296 9.78262 116.366 10.2126C117.431 10.6426 118.306 11.2526 118.996 12.0326C119.681 12.8176 120.201 13.7376 120.551 14.8076C120.906 15.8726 121.076 17.0576 121.076 18.3476C121.076 19.9626 120.821 21.5876 120.311 23.2076C119.801 24.8226 119.041 26.2826 118.041 27.5776C117.041 28.8726 115.796 29.9326 114.296 30.7526C112.811 31.5826 111.071 31.9976 109.101 31.9976ZM112.096 14.6626C111.206 14.6626 110.421 14.9226 109.751 15.4276C109.076 15.9426 108.511 16.5926 108.051 17.3726C107.591 18.1576 107.246 19.0126 107.016 19.9426C106.786 20.8776 106.671 21.7576 106.671 22.5926C106.671 23.9426 106.891 24.9976 107.316 25.7526C107.751 26.5076 108.531 26.8826 109.666 26.8826C110.556 26.8826 111.341 26.6276 112.016 26.1126C112.686 25.6026 113.256 24.9526 113.716 24.1676C114.176 23.3876 114.521 22.5276 114.751 21.5976C114.976 20.6676 115.091 19.7826 115.091 18.9476C115.091 17.5976 114.876 16.5426 114.441 15.7876C114.016 15.0426 113.231 14.6626 112.096 14.6626Z" fill="#667085"/>
<path d="M127.616 31.4327H121.616L126.676 10.1327H132.711L127.616 31.4327ZM130.531 7.5377C129.696 7.5377 128.936 7.2877 128.266 6.7877C127.591 6.2927 127.251 5.52771 127.251 4.49771C127.251 3.93271 127.366 3.40271 127.596 2.89771C127.826 2.39771 128.131 1.96771 128.506 1.60271C128.881 1.23771 129.326 0.947712 129.821 0.732712C130.321 0.517712 130.851 0.407715 131.416 0.407715C132.256 0.407715 133.011 0.657715 133.686 1.15771C134.361 1.65771 134.701 2.42271 134.701 3.44771C134.701 4.01771 134.581 4.54771 134.356 5.04771C134.131 5.54771 133.826 5.97771 133.446 6.34271C133.066 6.70771 132.631 6.99771 132.131 7.21271C131.631 7.43271 131.101 7.5377 130.531 7.5377Z" fill="#667085"/>
<path d="M137.036 11.1027C137.491 10.9677 138.001 10.8077 138.551 10.6377C139.106 10.4627 139.726 10.3027 140.416 10.1577C141.101 10.0077 141.871 9.88271 142.721 9.79271C143.571 9.69771 144.536 9.64771 145.611 9.64771C148.771 9.64771 150.951 10.5677 152.156 12.4027C153.356 14.2377 153.566 16.7477 152.786 19.9327L150.031 31.4327H143.996L146.666 20.1727C146.831 19.4727 146.956 18.7927 147.051 18.1277C147.146 17.4677 147.141 16.8877 147.031 16.3877C146.926 15.8927 146.676 15.4877 146.286 15.1727C145.891 14.8627 145.291 14.7077 144.481 14.7077C143.701 14.7077 142.906 14.7927 142.091 14.9527L138.161 31.4327H132.126L137.036 11.1027Z" fill="#667085"/>
</g>
<defs>
<clipPath id="clip0_613_3126">
<rect width="153.255" height="32" fill="white"/>
</clipPath>
</defs>
</svg>
