<svg width="124" height="32" viewBox="0 0 124 32" fill="none" xmlns="http://www.w3.org/2000/svg">
<path fill-rule="evenodd" clip-rule="evenodd" d="M28.9663 24.5049C28.9005 24.9651 28.9005 25.369 28.9005 25.8292C28.9663 29.7365 31.8122 31.7934 35.3907 31.8591C37.8421 31.9249 39.8333 30.9293 41.5521 29.2105L41.8808 31.3332H46.6522C46.3235 30.1403 46.2577 28.0834 46.2577 26.4303V24.5049H41.4864V26.8248C40.2278 27.8204 38.8377 28.4779 37.241 28.4779C35.1183 28.4779 33.7282 27.548 33.7282 25.2281C33.7282 25.0309 33.7282 24.7679 33.794 24.4955H28.9663V24.5049ZM55.1993 24.5049V26.3646C55.1993 29.4829 55.3308 31.0044 55.4623 31.3332H50.2307C50.2965 31.0044 50.3622 30.6006 50.3622 30.1403C50.4937 29.079 50.4937 27.8204 50.4937 26.3646V24.5049H55.1993ZM60.4403 24.5049C60.4403 24.9651 60.3745 25.369 60.3745 25.8292C60.506 29.7365 63.3519 31.7934 66.8647 31.8591C69.3161 31.9249 71.3731 30.9293 73.0919 29.2105C73.0919 29.2105 73.1576 30.6006 73.4206 31.3332C74.482 31.3332 78.192 31.3332 78.192 31.3332C77.7975 30.5348 77.7975 28.0834 77.7975 26.4303V24.5049H72.9604V26.8248C71.7675 27.8204 70.3117 28.4779 68.7902 28.4779C66.6017 28.4779 65.2774 27.548 65.2774 25.2281C65.2774 25.0309 65.2774 24.7679 65.2774 24.4955H60.4403V24.5049ZM86.617 24.5049V26.0264C86.617 27.2193 86.6827 28.3464 86.6827 29.2762C86.7485 30.2061 86.8142 30.8635 86.9457 31.3332H81.6484C81.8456 30.4691 81.9114 28.6845 81.9114 26.1673V24.5143H86.617V24.5049ZM99.4658 24.5049V25.9607C99.4658 29.4735 99.5973 30.9293 99.7945 31.3238H94.4972C94.6945 30.9293 94.6945 29.868 94.6945 28.7409C94.6945 27.8768 94.6945 26.7497 94.6945 25.5568V24.4955H99.4658V24.5049ZM109.807 24.5049V24.9651C109.807 27.2193 110.737 28.3464 112.587 28.3464C113.78 28.3464 114.907 28.0834 116.166 27.4165L116.56 30.1967C114.569 31.258 112.653 31.784 110.859 31.784C108.605 31.784 107.083 31.0514 106.087 29.7928C105.421 28.863 105.026 27.1441 105.026 24.7585V24.4955H109.807V24.5049ZM118.748 24.5049V25.895C118.748 28.9475 118.748 30.6006 118.354 31.3332H123.924C123.595 30.6663 123.529 28.553 123.529 25.8292V24.5049H118.748Z" fill="#667085"/>
<path fill-rule="evenodd" clip-rule="evenodd" d="M33.8033 24.5049C34.1978 21.5933 37.2504 19.7336 41.4864 20.8606V24.5049H46.2577V17.2821C46.2577 11.3179 43.609 9.3925 37.8421 9.3925C35.5222 9.3925 33.6719 9.85272 31.6149 10.7826L31.0889 13.7694C33.0144 12.708 35.3343 12.3135 37.5791 12.3135C41.6836 12.3135 41.4864 15.4976 41.4864 18.5407C36.2548 16.9534 29.6895 18.738 28.9662 24.5049H33.8033ZM50.4937 24.5049V15.2252C50.4937 12.8395 50.0992 11.4494 49.2351 10.9798C50.6909 10.1815 52.1468 9.58974 53.0766 9.58974C54.6639 9.58974 55.0021 11.0456 55.0021 12.708C56.4579 10.4538 58.3176 9.32675 60.4403 9.32675C60.8348 9.32675 61.2386 9.3925 61.5674 9.45824L60.9005 13.1025C60.5718 13.1025 60.1679 13.1025 59.7077 13.1025C58.1861 13.1025 56.6551 13.9009 55.1993 15.5539V24.4955H50.4937V24.5049ZM65.2774 24.5049C65.7376 21.5933 68.7244 19.7336 72.9604 20.8606V24.5049H77.7975V17.2821C77.7975 11.3179 75.0831 9.3925 69.3161 9.3925C67.0619 9.3925 65.2116 9.78698 63.1547 10.7168L62.563 13.7694C63.2956 13.3749 64.0845 13.1025 64.8829 12.8395C66.273 12.445 67.663 12.3135 69.1283 12.3135C73.167 12.3135 72.9698 15.4976 72.9698 18.5407C67.7382 16.9534 61.2386 18.738 60.4497 24.5049H65.2774ZM81.9114 24.5049V15.2252C81.9114 12.5765 81.5169 11.5152 80.6528 10.9798C82.5782 10.05 83.7053 9.58974 84.56 9.58974C86.0816 9.58974 86.4197 10.9141 86.4855 12.6423C88.3452 10.7826 90.9281 9.32675 93.3795 9.32675C95.7652 9.32675 97.5498 10.1909 98.6111 11.9097C98.8741 12.3041 99.0056 12.7738 99.1371 13.4312C99.4001 14.3611 99.4658 15.5539 99.4658 17.0098V24.4955H94.6945V17.1412C94.6945 14.2296 93.8304 12.8959 91.7171 12.8959C90.064 12.8959 88.1385 14.0887 86.617 15.413V24.4955H81.9114V24.5049ZM105.036 24.5049V12.9053H101.72V10.2566L105.036 9.86212L105.43 4.76203L109.807 4.43329V9.93726H115.245V12.9147H109.807V18.0805V19.6021V20.2689V24.5143H105.036V24.5049ZM123.52 24.5049V14.1638C123.52 11.7124 123.783 9.52399 121.463 9.52399C120.665 9.52399 119.274 10.05 117.556 10.9798C118.42 11.5715 118.748 12.7644 118.748 15.3567V24.5049H123.52ZM123.726 4.75264C123.726 3.88853 123.463 3.23106 122.862 2.6957C122.336 2.09458 121.669 1.89734 120.871 1.89734C120.073 1.89734 119.415 2.16033 118.88 2.6957C118.551 3.02443 118.288 3.49405 118.147 3.95428L118.082 4.75264C118.082 5.48525 118.345 6.14272 118.88 6.74383C119.406 7.26981 120.073 7.54219 120.871 7.54219C121.669 7.54219 122.327 7.34495 122.862 6.74383C123.454 6.15211 123.726 5.48525 123.726 4.75264Z" fill="#667085"/>
<path fill-rule="evenodd" clip-rule="evenodd" d="M24.6551 5.22219C22.2037 4.22659 19.6865 3.76636 17.1694 3.76636C13.8538 3.76636 11.2709 4.9592 9.14822 7.14764C6.95979 9.46757 5.89844 12.3792 5.89844 15.892C5.89844 19.7335 6.82829 22.786 8.81009 25.0402C10.7355 27.2944 13.2527 28.4872 16.6997 28.4872C18.4843 28.4872 19.9495 28.2242 21.2081 27.7546V20.2031C21.2081 19.6771 21.2081 19.2075 21.2081 18.7473H18.6909H17.1694C17.1036 17.423 16.9064 16.0329 16.7091 15.1688L26.5806 15.4975C26.1861 16.6903 26.1203 18.0804 26.1203 20.5318V24.4391C26.1203 27.1535 26.3176 29.0132 26.5806 29.8773C23.1335 31.3331 19.7523 32 16.3053 32C11.2052 32 7.28852 30.6099 4.44262 27.8298C1.66246 25.0496 0 21.2738 0 16.5025C0 11.6654 1.79395 7.6924 4.90284 4.57411C7.95538 1.52157 12.0599 0 17.16 0C21.4711 0 23.0584 0.591723 25.3783 1.39008L24.6551 5.22219Z" fill="#667085"/>
</svg>
