<svg width="129" height="48" viewBox="0 0 129 48" fill="none" xmlns="http://www.w3.org/2000/svg">
<g clip-path="url(#clip0_613_3531)">
<path fill-rule="evenodd" clip-rule="evenodd" d="M63.0873 -4.69806e-06C70.5238 -0.00749105 76.3668 0.341872 82.6958 1.41492C89.6061 2.58528 96.0504 4.1649 101.239 7.127C101.623 7.3466 101.916 7.48884 102.415 7.80577C104.436 9.09841 106.955 11.1721 107.438 13.9521C107.829 16.2005 106.774 18.0321 105.637 19.3372C104.454 20.6923 103.006 21.7229 101.457 22.6013C95.1484 26.1823 86.8275 28.0888 78.1908 29.0745C74.1769 29.5337 69.9676 29.8631 65.0291 29.8631C60.226 29.8631 55.9841 29.6709 51.8925 29.2641C43.5716 28.4406 34.8573 26.7038 28.2977 23.3899C26.6641 22.5639 25.1357 21.663 23.7652 20.4527C22.4623 19.3023 21.2195 17.8749 20.8713 15.911C20.2799 12.6095 22.6151 10.2089 24.5544 8.73158C26.6315 7.14697 29.305 5.82438 31.8731 4.86862C37.2075 2.88224 43.6593 1.56215 50.061 0.788558C54.3254 0.271999 58.1113 0.0049862 63.0873 -4.69806e-06ZM63.2778 2.96459C57.505 2.96459 52.0228 4.00769 47.2197 5.76698C44.867 6.62791 42.7773 7.68598 40.9382 9.22069C39.3347 10.5607 37.4355 12.7118 37.879 15.6664C38.2623 18.2168 40.2968 20.0335 42.0307 21.2413C43.965 22.5913 46.2876 23.6095 48.6403 24.3681C53.7241 26.0076 59.4167 26.7138 65.2997 26.6539C70.8871 26.5965 76.7652 25.6308 81.3854 23.8266C83.6629 22.9357 85.8503 21.8477 87.6393 20.3454C89.2879 18.9629 91.0368 16.7295 90.5883 13.9546C90.1874 11.4691 88.2832 9.6499 86.4366 8.37972C84.4071 6.98227 82.2548 6.06144 79.8269 5.25292C76.1112 4.01268 71.8893 3.27652 67.8379 3.07689C66.5676 3.0145 64.8963 2.89472 63.3329 2.96709C63.3153 2.96459 63.2953 2.96459 63.2778 2.96459Z" fill="#667085"/>
<path fill-rule="evenodd" clip-rule="evenodd" d="M5.8204 35.4679C8.28587 35.4629 10.4782 35.4404 12.4827 35.8497C13.1542 35.9869 13.9108 36.2464 14.1489 36.748C14.3719 37.2197 14.2842 37.9982 14.2842 39.1412C14.2842 41.2623 14.2842 43.2062 14.2842 45.4247C14.2842 45.8265 14.3343 46.333 14.229 46.6225C13.9008 47.5134 12.1144 47.7255 11.1973 47.8178C8.73186 48.0724 5.79785 48.0549 3.27727 47.8178C2.28757 47.7255 0.521159 47.5134 0.137809 46.6749C-0.0901963 46.1758 0.0275647 45.0005 0.0275647 44.2543C0.0275647 42.4426 0.0275647 41.1175 0.0275647 39.251C0.0275647 38.3676 -0.10523 37.2022 0.245548 36.6682C0.601336 36.1267 1.77143 35.8247 2.73106 35.6899C3.80594 35.5327 4.62275 35.4703 5.8204 35.4679ZM5.60242 37.0175C5.5047 37.2172 5.5473 37.7886 5.5473 38.133C5.5473 40.2317 5.5473 41.996 5.5473 44.0622C5.5473 44.7634 5.40949 45.9837 5.62998 46.373C5.85799 46.7772 6.49189 46.7722 7.13331 46.7797C7.64194 46.7872 8.41365 46.8172 8.6617 46.3979C8.8872 46.0186 8.74439 44.8907 8.74439 44.1395C8.74439 42.2156 8.74439 41.2598 8.74439 39.4082C8.74439 38.8991 8.87217 37.4617 8.71682 37.0699C8.51889 36.5708 7.20598 36.6033 6.74997 36.6357C6.42174 36.6582 5.7728 36.6732 5.60242 37.0175Z" fill="#667085"/>
<path fill-rule="evenodd" clip-rule="evenodd" d="M27.1477 35.6025C29.3601 35.6025 31.808 35.6025 34.1106 35.6025C35.7092 39.6502 37.3152 43.6903 38.8887 47.7604C36.7941 47.7604 34.7019 47.7604 32.6073 47.7604C32.2615 46.7622 31.9458 45.7341 31.5975 44.7409C30.4199 44.6985 29.0594 44.6935 27.8843 44.7409C27.5486 45.7016 27.2905 46.7422 27.0099 47.7604C25.5817 47.7604 24.151 47.7604 22.7229 47.7604C23.7877 44.7359 24.9102 41.7089 26.0001 38.6769C26.3659 37.6588 26.7894 36.5009 27.1477 35.6025ZM28.1599 43.3285C29.117 43.2835 30.2621 43.2835 31.2192 43.3285C30.6755 41.7314 30.1518 40.1143 29.553 38.5696C29.1145 40.1792 28.6009 41.7189 28.1599 43.3285Z" fill="#667085"/>
<path fill-rule="evenodd" clip-rule="evenodd" d="M54.1024 40.4986C55.4028 39.1611 56.7608 37.6563 58.1163 36.174C58.2817 35.9943 58.5723 35.6425 58.7176 35.6025C59.0434 35.5127 59.6222 35.6025 60.0005 35.6025C61.2483 35.6025 62.5687 35.625 63.7964 35.5751C63.849 35.7223 63.6486 35.7972 63.5784 35.8746C62.1628 37.4267 60.6419 39.0762 59.1812 40.6059C60.6269 42.9841 62.1728 45.4047 63.5509 47.7579C61.4487 47.7579 59.344 47.7579 57.2419 47.7579C56.1269 46.056 55.1848 44.1869 54.1024 42.4551C54.1024 44.2218 54.1024 45.9911 54.1024 47.7579C52.118 47.7579 50.1336 47.7579 48.1492 47.7579C48.1317 43.8325 48.1868 39.5978 48.1217 35.6275C50.0159 35.5651 52.1731 35.6175 54.0197 35.6001C54.1701 35.5851 54.1024 35.9295 54.1024 36.1166C54.1024 37.5016 54.1024 39.0987 54.1024 40.4986Z" fill="#667085"/>
<path fill-rule="evenodd" clip-rule="evenodd" d="M72.9191 35.6026C74.8935 35.6026 76.8704 35.6026 78.8448 35.6026C78.8448 39.0938 78.8448 42.7296 78.8448 46.1284C80.8116 46.1459 82.8511 46.0935 84.7704 46.1559C84.7704 46.6899 84.7704 47.2264 84.7704 47.7605C80.8016 47.7605 76.8328 47.7605 72.864 47.7605C72.9267 44.0323 72.874 39.6203 72.8916 35.6575C72.8365 35.6326 72.9016 35.5377 72.9191 35.6026Z" fill="#667085"/>
<path fill-rule="evenodd" clip-rule="evenodd" d="M93.6451 35.6025C97.5312 35.6025 101.42 35.6025 105.306 35.6025C105.306 36.1191 105.306 36.6357 105.306 37.1522C103.412 37.1522 101.52 37.1522 99.6258 37.1522C99.5632 38.3401 99.6158 39.6452 99.5983 40.8779C101.054 40.8954 102.585 40.843 103.996 40.9054C104.006 41.4294 103.975 41.931 104.023 42.3203C102.557 42.3203 101.092 42.3203 99.6258 42.3203C99.6258 43.6079 99.6258 44.8956 99.6258 46.1833C101.455 46.2456 103.404 46.1932 105.278 46.2107C105.278 46.7273 105.278 47.2438 105.278 47.7604C101.392 47.7604 97.5036 47.7604 93.6175 47.7604C93.6175 43.7252 93.6175 39.6926 93.6175 35.6574C93.6075 35.605 93.6376 35.5601 93.6451 35.6025Z" fill="#667085"/>
<path fill-rule="evenodd" clip-rule="evenodd" d="M128.465 35.5752C128.487 35.5702 128.49 35.5852 128.492 35.6026C126.884 38.143 125.072 40.7183 123.386 43.2737C123.404 44.7335 123.351 46.4079 123.414 47.7355C121.464 47.7979 119.4 47.7455 117.405 47.763C117.403 46.6999 117.405 45.577 117.405 44.4166C117.405 44.0448 117.475 43.623 117.405 43.3011C117.345 43.0191 116.962 42.6323 116.749 42.3229C115.215 40.087 113.692 37.8061 112.244 35.6051C114.346 35.6051 116.448 35.6051 118.553 35.6051C119.482 37.0625 120.327 38.6072 121.201 40.1194C122.118 38.6396 122.968 37.0924 123.877 35.6051C125.395 35.5852 126.989 35.6401 128.465 35.5752Z" fill="#667085"/>
</g>
<defs>
<clipPath id="clip0_613_3531">
<rect width="128.492" height="48" fill="white"/>
</clipPath>
</defs>
</svg>
